<svg xmlns="http://www.w3.org/2000/svg" viewBox="-24 -56 144 144" preserveAspectRatio="xMidYMid meet" overflow="visible">
  <defs>
    <linearGradient id="copper-grad" x1="0" y1="43.59" x2="87.18" y2="43.59" gradientUnits="userSpaceOnUse">
      <stop offset="0" stop-color="#e8a96a"/>
      <stop offset="1" stop-color="#c17d3c"/>
    </linearGradient>
  </defs>
  <g transform="scale(0.917641479697)">
    <path fill="url(#copper-grad)" d="M17.49,63.75c-4.32-5.58-6.9-12.57-6.9-20.16,0-18.19,14.8-33,33-33s33,14.8,33,33c0,2.39-.26,4.72-.74,6.96l6.96,12.05c2.8-5.75,4.37-12.2,4.37-19.02C87.18,19.55,67.62,0,43.59,0S0,19.55,0,43.59s19.55,43.59,43.59,43.59c4.24,0,8.33-.61,12.21-1.74l-5.51-9.54c-2.17.45-4.41.68-6.7.68-6.69,0-12.93-2.01-18.13-5.45l18.04-31.25,27.3,47.29h12.23L43.5,18.7l-26.01,45.04Z"/>
  </g>
  <g transform="translate(65,-48) scale(0.9375) matrix(0.990268 0.139173 -0.139173 0.990268 -30 0) rotate(15)">
    <path fill="#c17d3c" d="M60.5,20.761c-1.21,0-2.278,0.618-2.907,1.555c-3.921-1.184-13.482-2.535-19.954,9.32c-3.224-7.261-1.619-11.465,0.374-16.685c0.055-0.145,0.112-0.296,0.167-0.442c0.728,0.756,1.745,1.231,2.875,1.231c2.206,0,4-1.794,4-4c0-2.206-1.794-4-4c-2.206,0-4,1.794-4,4c0,0.167,0.029,0.327,0.049,0.489c-7.937,0.865-12.745,7.761-13.092,18.465c-3.64-5.305-9.331-6.386-15.744-7.603c-0.435-0.083-0.882-0.169-1.327-0.255C6.973,22.647,7,22.457,7,22.261c0-1.93-1.57-3.5-3.5-3.5s-3.5,1.57-3.5,3.5c0,1.93,1.57,3.5,3.5,3.5c0.897,0,1.707-0.349,2.327-0.905c9.608,9.938,12.647,13.094,11.538,25.405h-0.031c-1.838,0-3.333,1.346-3.333,3s1.495,3,3.333,3h30.334c1.838,0,3.333-1.346,3.333-3s-1.495-3-3.333-3h-0.304c-2.948-10.248,0.186-18.216,9.827-24.913c0.46,1.396,1.762,2.413,3.31,2.413c1.93,0,3.5-1.57,3.5-3.5C64,22.331,62.43,20.761,60.5,20.761z"/>
    <circle cx="41" cy="9.7" r="2" fill="#e8a96a"/>
    <circle cx="41" cy="9.7" r="3.5" fill="none" stroke="#c17d3c" stroke-width="0.5"/>
    <circle cx="3.5" cy="22.3" r="1.5" fill="#e8a96a"/>
    <circle cx="3.5" cy="22.3" r="3" fill="none" stroke="#c17d3c" stroke-width="0.5"/>
    <circle cx="60.5" cy="24.3" r="1.5" fill="#e8a96a"/>
    <circle cx="60.5" cy="24.3" r="3" fill="none" stroke="#c17d3c" stroke-width="0.5"/>
    <path fill="#a06530" d="M44.308,43.261c-0.002,1.506,0.138,3.056,0.437,4.656l-4.614-4.656H44.308z M20.835,50.168l4.829-4.983l4.989,4.983H20.835z M34.586,50.168l4.653-4.967l4.923,4.967H34.586z M32.637,49.324l-6.07-6.063h11.749L32.637,49.324z M19.483,48.691c0.124-2.023,0.12-3.813-0.016-5.43h5.277L19.483,48.691z"/>
    <path fill="#a06530" d="M49,53.261c0,0.542-0.61,1-1.333,1H17.333c-0.723,0-1.333-0.458-1.333-1c0-0.542,0.61-1,1.333-1h30.334C48.39,52.261,49,52.719,49,53.261z"/>
  </g>
</svg>
